# xmcd
#
# Track frame offsets:
#	150
#	12512
#	24797
#	45660
#	81941
#	93648
#	109587
#	124927
#	143562
#	164063
#	176121
#	190963
#	212613
#	222991
#
# Disc length: 3292 seconds
#
# Revision: 0
# Processed by: cddbd v1.5.2PL0 Copyright (c) Steve Scherf et al.
# Submitted via: dBpowerAMP V4.0
#
DISCID=c50cda0e
DTITLE=Lohues and the  Louisiana BluesClub - Grip
DYEAR=2005
DGENRE=Blues
TTITLE0=De trein rolt verder
TTITLE1=Waailappe blues
TTITLE2=Liek veur de kop
TTITLE3=Boggel in 't rad
TTITLE4=Nils Holgerssons blues
TTITLE5=New Orleans
TTITLE6=Water op de lont
TTITLE7=Scheuvel blues
TTITLE8=Niet alles hebben
TTITLE9='t Is mij mislukt
TTITLE10=Iene met de jasse an
TTITLE11=Grip
TTITLE12=Zydeco
TTITLE13=Zomerweer
EXTD=
EXTT0=
EXTT1=
EXTT2=
EXTT3=
EXTT4=
EXTT5=
EXTT6=
EXTT7=
EXTT8=
EXTT9=
EXTT10=
EXTT11=
EXTT12=
EXTT13=
PLAYORDER=
